<svg width="306" height="78" viewBox="0 0 306 78" fill="none" xmlns="http://www.w3.org/2000/svg">
<path d="M0.458984 69.9358C0.458984 74.3541 4.04071 77.9358 8.45898 77.9358H297.459C301.877 77.9358 305.459 74.3541 305.459 69.9358V9.63091H0.458984V69.9358Z" fill="#A466FF"/>
<mask id="mask0" style="mask-type:alpha" maskUnits="userSpaceOnUse" x="0" y="0" width="306" height="77">
<path d="M0.458984 68.9331C0.458984 73.3514 4.04071 76.9331 8.45898 76.9331H297.459C301.877 76.9331 305.459 73.3514 305.459 68.9331V0.933105H0.458984V68.9331Z" fill="#F9F9F9"/>
</mask>
<g mask="url(#mask0)">
<mask id="mask1" style="mask-type:alpha" maskUnits="userSpaceOnUse" x="0" y="9" width="306" height="68">
<rect x="0.458252" y="9.61841" width="305" height="67.3149" fill="#27163F"/>
</mask>
<g mask="url(#mask1)">
<path d="M24.0787 80.4513C23.8079 78.7417 24.9743 77.1364 26.6838 76.8656C28.3934 76.5948 29.9987 77.7612 30.2695 79.4708C30.5403 81.1803 29.3739 82.7857 27.6644 83.0564C25.9548 83.3272 24.3494 82.1608 24.0787 80.4513Z" fill="#E7E7E7"/>
<path d="M296.87 67.9955C296.642 66.5542 297.625 65.2007 299.066 64.9724C300.508 64.7441 301.861 65.7275 302.09 67.1688C302.318 68.6101 301.334 69.9636 299.893 70.1919C298.452 70.4202 297.098 69.4368 296.87 67.9955Z" fill="#F6AAAA"/>
<path d="M284.484 67.9955C284.256 66.5542 285.239 65.2007 286.68 64.9724C288.122 64.7441 289.475 65.7275 289.703 67.1688C289.932 68.6101 288.948 69.9636 287.507 70.1919C286.066 70.4202 284.712 69.4368 284.484 67.9955Z" fill="#F6AAAA"/>
<path d="M272.098 67.9955C271.869 66.5542 272.853 65.2007 274.294 64.9724C275.735 64.7441 277.089 65.7275 277.317 67.1688C277.545 68.6101 276.562 69.9636 275.121 70.1919C273.679 70.4202 272.326 69.4368 272.098 67.9955Z" fill="#E7E7E7"/>
<path d="M259.719 67.9955C259.491 66.5542 260.474 65.2007 261.916 64.9724C263.357 64.7441 264.71 65.7275 264.939 67.1688C265.167 68.6101 264.184 69.9636 262.742 70.1919C261.301 70.4202 259.947 69.4368 259.719 67.9955Z" fill="#E7E7E7"/>
<path d="M247.469 67.9955C247.24 66.5542 248.224 65.2007 249.665 64.9724C251.106 64.7441 252.46 65.7275 252.688 67.1688C252.917 68.6101 251.933 69.9636 250.492 70.1919C249.05 70.4202 247.697 69.4368 247.469 67.9955Z" fill="#E7E7E7"/>
<path d="M235.084 67.9955C234.856 66.5542 235.839 65.2007 237.281 64.9724C238.722 64.7441 240.075 65.7275 240.304 67.1688C240.532 68.6101 239.549 69.9636 238.107 70.1919C236.666 70.4202 235.312 69.4368 235.084 67.9955Z" fill="#E7E7E7"/>
<path d="M222.7 67.9955C222.471 66.5542 223.455 65.2007 224.896 64.9724C226.337 64.7441 227.691 65.7275 227.919 67.1688C228.147 68.6101 227.164 69.9636 225.723 70.1919C224.281 70.4202 222.928 69.4368 222.7 67.9955Z" fill="#E3E3E3"/>
<path d="M210.322 67.9955C210.094 66.5542 211.078 65.2007 212.519 64.9724C213.96 64.7441 215.314 65.7275 215.542 67.1688C215.77 68.6101 214.787 69.9636 213.346 70.1919C211.904 70.4202 210.551 69.4368 210.322 67.9955Z" fill="#E7E7E7"/>
<path d="M197.935 67.9955C197.706 66.5542 198.69 65.2007 200.131 64.9724C201.573 64.7441 202.926 65.7275 203.154 67.1688C203.383 68.6101 202.399 69.9636 200.958 70.1919C199.517 70.4202 198.163 69.4368 197.935 67.9955Z" fill="#E7E7E7"/>
<path d="M185.55 67.9955C185.322 66.5542 186.305 65.2007 187.747 64.9724C189.188 64.7441 190.541 65.7275 190.77 67.1688C190.998 68.6101 190.015 69.9636 188.573 70.1919C187.132 70.4202 185.779 69.4368 185.55 67.9955Z" fill="#A566FF"/>
<path d="M160.787 67.9955C160.559 66.5542 161.542 65.2007 162.983 64.9724C164.425 64.7441 165.778 65.7275 166.007 67.1688C166.235 68.6101 165.251 69.9636 163.81 70.1919C162.369 70.4202 161.015 69.4368 160.787 67.9955Z" fill="#E7E7E7"/>
<path d="M148.401 67.9955C148.173 66.5542 149.156 65.2007 150.597 64.9724C152.039 64.7441 153.392 65.7275 153.62 67.1688C153.849 68.6101 152.865 69.9636 151.424 70.1919C149.983 70.4202 148.629 69.4368 148.401 67.9955Z" fill="#E7E7E7"/>
<path d="M123.638 67.9955C123.409 66.5542 124.393 65.2007 125.834 64.9724C127.275 64.7441 128.629 65.7275 128.857 67.1688C129.085 68.6101 128.102 69.9636 126.661 70.1919C125.219 70.4202 123.866 69.4368 123.638 67.9955Z" fill="#E7E7E7"/>
<path d="M111.253 67.9955C111.025 66.5542 112.008 65.2007 113.45 64.9724C114.891 64.7441 116.244 65.7275 116.473 67.1688C116.701 68.6101 115.718 69.9636 114.276 70.1919C112.835 70.4202 111.481 69.4368 111.253 67.9955Z" fill="#E7E7E7"/>
<path d="M98.8654 67.9955C98.6371 66.5542 99.6205 65.2007 101.062 64.9724C102.503 64.7441 103.857 65.7275 104.085 67.1688C104.313 68.6101 103.33 69.9636 101.889 70.1919C100.447 70.4202 99.0937 69.4368 98.8654 67.9955Z" fill="#E7E7E7"/>
<path d="M86.4809 67.9955C86.2526 66.5542 87.236 65.2007 88.6773 64.9724C90.1186 64.7441 91.4721 65.7275 91.7004 67.1688C91.9287 68.6101 90.9453 69.9636 89.504 70.1919C88.0627 70.4202 86.7092 69.4368 86.4809 67.9955Z" fill="#E7E7E7"/>
<path d="M74.0909 67.9974C73.8617 66.5504 74.8489 65.1917 76.2958 64.9625C77.7427 64.7334 79.1015 65.7205 79.3307 67.1675C79.5598 68.6144 78.5726 69.9731 77.1257 70.2023C75.6788 70.4315 74.3201 69.4443 74.0909 67.9974Z" fill="#E3E3E3"/>
<path d="M61.6919 67.9995C61.4618 66.547 62.4528 65.183 63.9053 64.9529C65.3578 64.7229 66.7218 65.7139 66.9519 67.1664C67.1819 68.6189 66.1909 69.9829 64.7384 70.2129C63.2859 70.443 61.9219 69.452 61.6919 67.9995Z" fill="#E7E7E7"/>
<path d="M49.0768 68.0346C48.8264 66.4536 49.9051 64.9689 51.4861 64.7185C53.0671 64.4681 54.5518 65.5467 54.8022 67.1278C55.0526 68.7088 53.9739 70.1935 52.3929 70.4439C50.8119 70.6943 49.3272 69.6156 49.0768 68.0346Z" fill="#E3E3E3"/>
<path d="M36.9415 67.9974C36.7123 66.5504 37.6995 65.1917 39.1464 64.9625C40.5933 64.7334 41.9521 65.7205 42.1812 67.1675C42.4104 68.6144 41.4232 69.9731 39.9763 70.2023C38.5294 70.4315 37.1706 69.4443 36.9415 67.9974Z" fill="#E7E7E7"/>
<path d="M11.7805 68.0564C11.5168 66.3915 12.6527 64.8282 14.3175 64.5645C15.9823 64.3008 17.5457 65.4367 17.8094 67.1015C18.0731 68.7663 16.9372 70.3297 15.2724 70.5934C13.6076 70.8571 12.0442 69.7212 11.7805 68.0564Z" fill="#E7E7E7"/>
<path d="M296.87 55.6139C296.642 54.1726 297.625 52.8191 299.066 52.5908C300.508 52.3625 301.861 53.3459 302.09 54.7872C302.318 56.2285 301.334 57.582 299.893 57.8103C298.452 58.0386 297.098 57.0552 296.87 55.6139Z" fill="#F6AAAA"/>
<path d="M272.098 55.6139C271.869 54.1726 272.853 52.8191 274.294 52.5908C275.735 52.3625 277.089 53.3459 277.317 54.7872C277.545 56.2285 276.562 57.582 275.121 57.8103C273.679 58.0386 272.326 57.0552 272.098 55.6139Z" fill="#E7E7E7"/>
<path d="M259.719 55.6139C259.491 54.1726 260.474 52.8191 261.916 52.5908C263.357 52.3625 264.71 53.3459 264.939 54.7872C265.167 56.2285 264.184 57.582 262.742 57.8103C261.301 58.0386 259.947 57.0552 259.719 55.6139Z" fill="#E7E7E7"/>
<path d="M235.084 55.6139C234.856 54.1726 235.839 52.8191 237.281 52.5908C238.722 52.3625 240.075 53.3459 240.304 54.7872C240.532 56.2285 239.549 57.582 238.107 57.8103C236.666 58.0386 235.312 57.0552 235.084 55.6139Z" fill="#E7E7E7"/>
<path d="M222.7 55.6139C222.471 54.1726 223.455 52.8191 224.896 52.5908C226.337 52.3625 227.691 53.3459 227.919 54.7872C228.147 56.2285 227.164 57.582 225.723 57.8103C224.281 58.0386 222.928 57.0552 222.7 55.6139Z" fill="#E7E7E7"/>
<path d="M197.935 55.6139C197.706 54.1726 198.69 52.8191 200.131 52.5908C201.573 52.3625 202.926 53.3459 203.154 54.7872C203.383 56.2285 202.399 57.582 200.958 57.8103C199.517 58.0386 198.163 57.0552 197.935 55.6139Z" fill="#E7E7E7"/>
<path d="M185.55 55.6139C185.322 54.1726 186.305 52.8191 187.747 52.5908C189.188 52.3625 190.541 53.3459 190.77 54.7872C190.998 56.2285 190.015 57.582 188.573 57.8103C187.132 58.0386 185.779 57.0552 185.55 55.6139Z" fill="#E7E7E7"/>
<path d="M173.164 55.6359C172.936 54.1945 173.919 52.841 175.36 52.6128C176.802 52.3845 178.155 53.3678 178.384 54.8092C178.612 56.2505 177.628 57.604 176.187 57.8323C174.746 58.0606 173.392 57.0772 173.164 55.6359Z" fill="#E7E7E7"/>
<path d="M160.787 55.6139C160.559 54.1726 161.542 52.8191 162.983 52.5908C164.425 52.3625 165.778 53.3459 166.007 54.7872C166.235 56.2285 165.251 57.582 163.81 57.8103C162.369 58.0386 161.015 57.0552 160.787 55.6139Z" fill="#E7E7E7"/>
<path d="M148.424 55.6067C148.197 54.1766 149.173 52.8336 150.603 52.6071C152.033 52.3805 153.376 53.3563 153.603 54.7864C153.829 56.2166 152.854 57.5596 151.423 57.7861C149.993 58.0126 148.65 57.0369 148.424 55.6067Z" fill="#F6AAAA"/>
<path d="M136.052 55.6046C135.826 54.18 136.798 52.8423 138.223 52.6167C139.647 52.391 140.985 53.363 141.211 54.7875C141.436 56.2121 140.465 57.5499 139.04 57.7755C137.615 58.0011 136.278 57.0292 136.052 55.6046Z" fill="#E7E7E7"/>
<path d="M123.613 55.615C123.383 54.1625 124.374 52.7985 125.827 52.5684C127.279 52.3384 128.643 53.3294 128.873 54.7819C129.104 56.2344 128.113 57.5984 126.66 57.8284C125.208 58.0585 123.844 57.0675 123.613 55.615Z" fill="#E7E7E7"/>
<path d="M98.7849 55.6272C98.5496 54.1412 99.5635 52.7457 101.049 52.5103C102.536 52.275 103.931 53.2888 104.166 54.7749C104.402 56.2609 103.388 57.6564 101.902 57.8917C100.416 58.1271 99.0203 57.1132 98.7849 55.6272Z" fill="#E7E7E7"/>
<path d="M86.4754 55.6128C86.2462 54.1659 87.2334 52.8072 88.6803 52.578C90.1273 52.3488 91.486 53.336 91.7152 54.7829C91.9443 56.2299 90.9572 57.5886 89.5102 57.8178C88.0633 58.047 86.7046 57.0598 86.4754 55.6128Z" fill="#E7E7E7"/>
<path d="M74.0781 55.615C73.848 54.1625 74.839 52.7985 76.2915 52.5684C77.744 52.3384 79.108 53.3294 79.3381 54.7819C79.5681 56.2344 78.5771 57.5984 77.1246 57.8284C75.6721 58.0585 74.3081 57.0675 74.0781 55.615Z" fill="#A566FF"/>
<path d="M61.7276 55.6088C61.5002 54.1731 62.4797 52.8249 63.9155 52.5975C65.3512 52.3701 66.6995 53.3496 66.9269 54.7854C67.1543 56.2211 66.1747 57.5694 64.739 57.7968C63.3032 58.0242 61.955 57.0446 61.7276 55.6088Z" fill="#A566FF"/>
<path d="M49.4349 55.5964C49.2154 54.2109 50.1607 52.9099 51.5461 52.6904C52.9316 52.471 54.2326 53.4163 54.452 54.8017C54.6715 56.1872 53.7262 57.4882 52.3408 57.7076C50.9553 57.9271 49.6543 56.9818 49.4349 55.5964Z" fill="#E7E7E7"/>
<path d="M296.87 43.2262C296.642 41.7849 297.625 40.4314 299.066 40.2031C300.508 39.9748 301.861 40.9582 302.09 42.3995C302.318 43.8408 301.334 45.1943 299.893 45.4226C298.452 45.6509 297.098 44.6675 296.87 43.2262Z" fill="#E7E7E7"/>
<path d="M284.484 43.2262C284.256 41.7849 285.239 40.4314 286.68 40.2031C288.122 39.9748 289.475 40.9582 289.703 42.3995C289.932 43.8408 288.948 45.1943 287.507 45.4226C286.066 45.6509 284.712 44.6675 284.484 43.2262Z" fill="#E7E7E7"/>
<path d="M272.098 43.2262C271.869 41.7849 272.853 40.4314 274.294 40.2031C275.735 39.9748 277.089 40.9582 277.317 42.3995C277.545 43.8408 276.562 45.1943 275.121 45.4226C273.679 45.6509 272.326 44.6675 272.098 43.2262Z" fill="#E7E7E7"/>
<path d="M259.719 43.2262C259.491 41.7849 260.474 40.4314 261.916 40.2031C263.357 39.9748 264.71 40.9582 264.939 42.3995C265.167 43.8408 264.184 45.1943 262.742 45.4226C261.301 45.6509 259.947 44.6675 259.719 43.2262Z" fill="#E7E7E7"/>
<path d="M247.469 43.2262C247.24 41.7849 248.224 40.4314 249.665 40.2031C251.106 39.9748 252.46 40.9582 252.688 42.3995C252.917 43.8408 251.933 45.1943 250.492 45.4226C249.05 45.6509 247.697 44.6675 247.469 43.2262Z" fill="#E7E7E7"/>
<path d="M235.084 43.2262C234.856 41.7849 235.839 40.4314 237.281 40.2031C238.722 39.9748 240.075 40.9582 240.304 42.3995C240.532 43.8408 239.549 45.1943 238.107 45.4226C236.666 45.6509 235.312 44.6675 235.084 43.2262Z" fill="#E7E7E7"/>
<path d="M222.7 43.2262C222.471 41.7849 223.455 40.4314 224.896 40.2031C226.337 39.9748 227.691 40.9582 227.919 42.3995C228.147 43.8408 227.164 45.1943 225.723 45.4226C224.281 45.6509 222.928 44.6675 222.7 43.2262Z" fill="#E7E7E7"/>
<path d="M210.322 43.2262C210.094 41.7849 211.078 40.4314 212.519 40.2031C213.96 39.9748 215.314 40.9582 215.542 42.3995C215.77 43.8408 214.787 45.1943 213.346 45.4226C211.904 45.6509 210.551 44.6675 210.322 43.2262Z" fill="#A566FF"/>
<path d="M197.935 43.2262C197.706 41.7849 198.69 40.4314 200.131 40.2031C201.573 39.9748 202.926 40.9582 203.154 42.3995C203.383 43.8408 202.399 45.1943 200.958 45.4226C199.517 45.6509 198.163 44.6675 197.935 43.2262Z" fill="#E7E7E7"/>
<path d="M185.55 43.2262C185.322 41.7849 186.305 40.4314 187.747 40.2031C189.188 39.9748 190.541 40.9582 190.77 42.3995C190.998 43.8408 190.015 45.1943 188.573 45.4226C187.132 45.6509 185.779 44.6675 185.55 43.2262Z" fill="#E7E7E7"/>
<path d="M173.148 43.2482C172.92 41.8068 173.903 40.4534 175.345 40.2251C176.786 39.9968 178.14 40.9802 178.368 42.4215C178.596 43.8628 177.613 45.2163 176.171 45.4446C174.73 45.6729 173.377 44.6895 173.148 43.2482Z" fill="#E7E7E7"/>
<path d="M284.484 30.8446C284.256 29.4033 285.239 28.0498 286.68 27.8215C288.122 27.5932 289.475 28.5766 289.703 30.0179C289.932 31.4593 288.948 32.8127 287.507 33.041C286.066 33.2693 284.712 32.2859 284.484 30.8446Z" fill="#E7E7E7"/>
<path d="M272.098 30.8446C271.869 29.4033 272.853 28.0498 274.294 27.8215C275.735 27.5932 277.089 28.5766 277.317 30.0179C277.545 31.4593 276.562 32.8127 275.121 33.041C273.679 33.2693 272.326 32.286 272.098 30.8446Z" fill="#E7E7E7"/>
<path d="M247.565 30.83C247.345 29.4445 248.29 28.1435 249.676 27.9241C251.061 27.7047 252.362 28.6499 252.582 30.0354C252.801 31.4208 251.856 32.7218 250.47 32.9413C249.085 33.1607 247.784 32.2155 247.565 30.83Z" fill="#E7E7E7"/>
<path d="M222.683 30.8457C222.453 29.3932 223.444 28.0292 224.896 27.7991C226.349 27.5691 227.713 28.5601 227.943 30.0126C228.173 31.4651 227.182 32.8291 225.729 33.0591C224.277 33.2892 222.913 32.2982 222.683 30.8457Z" fill="#E7E7E7"/>
<path d="M210.362 30.8364C210.137 29.4174 211.105 28.0849 212.524 27.8601C213.943 27.6354 215.276 28.6035 215.501 30.0225C215.725 31.4415 214.757 32.774 213.338 32.9987C211.919 33.2235 210.587 32.2554 210.362 30.8364Z" fill="#E7E7E7"/>
<path d="M296.87 18.4601C296.642 17.0188 297.625 15.6653 299.066 15.437C300.508 15.2087 301.861 16.1921 302.09 17.6334C302.318 19.0747 301.334 20.4282 299.893 20.6565C298.452 20.8848 297.098 19.9014 296.87 18.4601Z" fill="#E7E7E7"/>
<path d="M284.484 18.4601C284.256 17.0188 285.239 15.6653 286.68 15.437C288.122 15.2087 289.475 16.1921 289.703 17.6334C289.932 19.0747 288.948 20.4282 287.507 20.6565C286.066 20.8848 284.712 19.9014 284.484 18.4601Z" fill="#E7E7E7"/>
<path d="M272.098 18.4601C271.869 17.0188 272.853 15.6653 274.294 15.437C275.735 15.2087 277.089 16.1921 277.317 17.6334C277.545 19.0747 276.562 20.4282 275.121 20.6565C273.679 20.8848 272.326 19.9014 272.098 18.4601Z" fill="#E7E7E7"/>
<path d="M259.719 18.4601C259.491 17.0188 260.474 15.6653 261.916 15.437C263.357 15.2087 264.71 16.1921 264.939 17.6334C265.167 19.0747 264.184 20.4282 262.742 20.6565C261.301 20.8848 259.947 19.9014 259.719 18.4601Z" fill="#E7E7E7"/>
<path d="M235.176 18.4415C234.956 17.0505 235.905 15.7442 237.296 15.5239C238.687 15.3035 239.993 16.2526 240.214 17.6436C240.434 19.0347 239.485 20.341 238.094 20.5613C236.703 20.7816 235.397 19.8325 235.176 18.4415Z" fill="#E7E7E7"/>
<path d="M222.91 18.429C222.7 17.105 223.604 15.8617 224.928 15.652C226.252 15.4423 227.495 16.3456 227.705 17.6696C227.914 18.9936 227.011 20.2369 225.687 20.4466C224.363 20.6563 223.12 19.753 222.91 18.429Z" fill="#A566FF"/>
</g>
</g>
</svg>
