<svg width="305" height="78" viewBox="0 0 305 78" fill="none" xmlns="http://www.w3.org/2000/svg">
<path d="M0 69.9358C0 74.3541 3.58172 77.9358 8 77.9358H297C301.418 77.9358 305 74.3541 305 69.9358V9.63091H0V69.9358Z" fill="#F9F9F9"/>
<mask id="mask0" style="mask-type:alpha" maskUnits="userSpaceOnUse" x="0" y="0" width="305" height="77">
<path d="M0 68.9331C0 73.3514 3.58172 76.9331 8 76.9331H297C301.418 76.9331 305 73.3514 305 68.9331V0.933105H0V68.9331Z" fill="#F9F9F9"/>
</mask>
<g mask="url(#mask0)">
<mask id="mask1" style="mask-type:alpha" maskUnits="userSpaceOnUse" x="-1" y="9" width="306" height="68">
<rect x="-0.000732422" y="9.61841" width="305" height="67.3149" fill="#27163F"/>
</mask>
<g mask="url(#mask1)">
<path d="M23.6197 80.4513C23.3489 78.7417 24.5153 77.1364 26.2248 76.8656C27.9344 76.5948 29.5398 77.7612 29.8105 79.4708C30.0813 81.1803 28.9149 82.7857 27.2054 83.0564C25.4958 83.3272 23.8905 82.1608 23.6197 80.4513Z" fill="#E7E7E7"/>
<path d="M296.411 67.9955C296.183 66.5542 297.166 65.2007 298.607 64.9724C300.049 64.7441 301.402 65.7275 301.63 67.1688C301.859 68.6101 300.875 69.9636 299.434 70.1919C297.993 70.4202 296.639 69.4368 296.411 67.9955Z" fill="#F6AAAA"/>
<path d="M284.025 67.9955C283.797 66.5542 284.78 65.2007 286.221 64.9724C287.663 64.7441 289.016 65.7275 289.244 67.1688C289.473 68.6101 288.489 69.9636 287.048 70.1919C285.607 70.4202 284.253 69.4368 284.025 67.9955Z" fill="#F6AAAA"/>
<path d="M271.639 67.9955C271.41 66.5542 272.394 65.2007 273.835 64.9724C275.276 64.7441 276.63 65.7275 276.858 67.1688C277.086 68.6101 276.103 69.9636 274.662 70.1919C273.22 70.4202 271.867 69.4368 271.639 67.9955Z" fill="#E7E7E7"/>
<path d="M259.26 67.9955C259.032 66.5542 260.015 65.2007 261.456 64.9724C262.898 64.7441 264.251 65.7275 264.479 67.1688C264.708 68.6101 263.724 69.9636 262.283 70.1919C260.842 70.4202 259.488 69.4368 259.26 67.9955Z" fill="#E7E7E7"/>
<path d="M247.01 67.9955C246.781 66.5542 247.765 65.2007 249.206 64.9724C250.647 64.7441 252.001 65.7275 252.229 67.1688C252.458 68.6101 251.474 69.9636 250.033 70.1919C248.591 70.4202 247.238 69.4368 247.01 67.9955Z" fill="#E7E7E7"/>
<path d="M234.625 67.9955C234.397 66.5542 235.38 65.2007 236.822 64.9724C238.263 64.7441 239.616 65.7275 239.845 67.1688C240.073 68.6101 239.09 69.9636 237.648 70.1919C236.207 70.4202 234.853 69.4368 234.625 67.9955Z" fill="#E7E7E7"/>
<path d="M222.241 67.9955C222.012 66.5542 222.996 65.2007 224.437 64.9724C225.878 64.7441 227.232 65.7275 227.46 67.1688C227.688 68.6101 226.705 69.9636 225.264 70.1919C223.822 70.4202 222.469 69.4368 222.241 67.9955Z" fill="#E3E3E3"/>
<path d="M209.863 67.9955C209.635 66.5542 210.619 65.2007 212.06 64.9724C213.501 64.7441 214.855 65.7275 215.083 67.1688C215.311 68.6101 214.328 69.9636 212.887 70.1919C211.445 70.4202 210.092 69.4368 209.863 67.9955Z" fill="#E7E7E7"/>
<path d="M197.476 67.9955C197.247 66.5542 198.231 65.2007 199.672 64.9724C201.114 64.7441 202.467 65.7275 202.695 67.1688C202.924 68.6101 201.94 69.9636 200.499 70.1919C199.058 70.4202 197.704 69.4368 197.476 67.9955Z" fill="#E7E7E7"/>
<path d="M185.091 67.9955C184.863 66.5542 185.846 65.2007 187.288 64.9724C188.729 64.7441 190.082 65.7275 190.311 67.1688C190.539 68.6101 189.556 69.9636 188.114 70.1919C186.673 70.4202 185.32 69.4368 185.091 67.9955Z" fill="#A566FF"/>
<path d="M160.328 67.9955C160.1 66.5542 161.083 65.2007 162.524 64.9724C163.966 64.7441 165.319 65.7275 165.548 67.1688C165.776 68.6101 164.793 69.9636 163.351 70.1919C161.91 70.4202 160.556 69.4368 160.328 67.9955Z" fill="#E7E7E7"/>
<path d="M147.942 67.9955C147.714 66.5542 148.697 65.2007 150.138 64.9724C151.58 64.7441 152.933 65.7275 153.161 67.1688C153.39 68.6101 152.406 69.9636 150.965 70.1919C149.524 70.4202 148.17 69.4368 147.942 67.9955Z" fill="#E7E7E7"/>
<path d="M123.179 67.9955C122.95 66.5542 123.934 65.2007 125.375 64.9724C126.816 64.7441 128.17 65.7275 128.398 67.1688C128.626 68.6101 127.643 69.9636 126.202 70.1919C124.76 70.4202 123.407 69.4368 123.179 67.9955Z" fill="#E7E7E7"/>
<path d="M110.794 67.9955C110.566 66.5542 111.549 65.2007 112.991 64.9724C114.432 64.7441 115.785 65.7275 116.014 67.1688C116.242 68.6101 115.259 69.9636 113.817 70.1919C112.376 70.4202 111.022 69.4368 110.794 67.9955Z" fill="#E7E7E7"/>
<path d="M98.4064 67.9955C98.1781 66.5542 99.1615 65.2007 100.603 64.9724C102.044 64.7441 103.398 65.7275 103.626 67.1688C103.854 68.6101 102.871 69.9636 101.43 70.1919C99.9882 70.4202 98.6347 69.4368 98.4064 67.9955Z" fill="#E7E7E7"/>
<path d="M86.0219 67.9955C85.7936 66.5542 86.777 65.2007 88.2183 64.9724C89.6597 64.7441 91.0132 65.7275 91.2414 67.1688C91.4697 68.6101 90.4864 69.9636 89.045 70.1919C87.6037 70.4202 86.2502 69.4368 86.0219 67.9955Z" fill="#E7E7E7"/>
<path d="M73.6319 67.9974C73.4027 66.5504 74.3899 65.1917 75.8368 64.9625C77.2838 64.7334 78.6425 65.7205 78.8717 67.1675C79.1008 68.6144 78.1137 69.9731 76.6667 70.2023C75.2198 70.4315 73.8611 69.4443 73.6319 67.9974Z" fill="#E3E3E3"/>
<path d="M61.2329 67.9995C61.0028 66.547 61.9938 65.183 63.4463 64.9529C64.8988 64.7229 66.2628 65.7139 66.4929 67.1664C66.7229 68.6189 65.7319 69.9829 64.2794 70.2129C62.8269 70.443 61.4629 69.452 61.2329 67.9995Z" fill="#E7E7E7"/>
<path d="M48.6178 68.0346C48.3674 66.4536 49.4461 64.9689 51.0271 64.7185C52.6081 64.4681 54.0928 65.5467 54.3432 67.1278C54.5936 68.7088 53.515 70.1935 51.9339 70.4439C50.3529 70.6943 48.8682 69.6156 48.6178 68.0346Z" fill="#E3E3E3"/>
<path d="M36.4825 67.9974C36.2533 66.5504 37.2405 65.1917 38.6874 64.9625C40.1343 64.7334 41.4931 65.7205 41.7223 67.1675C41.9514 68.6144 40.9642 69.9731 39.5173 70.2023C38.0704 70.4315 36.7117 69.4443 36.4825 67.9974Z" fill="#E7E7E7"/>
<path d="M11.3215 68.0564C11.0578 66.3915 12.1937 64.8282 13.8585 64.5645C15.5234 64.3008 17.0868 65.4367 17.3504 67.1015C17.6141 68.7663 16.4783 70.3297 14.8134 70.5934C13.1486 70.8571 11.5852 69.7212 11.3215 68.0564Z" fill="#E7E7E7"/>
<path d="M296.411 55.6139C296.183 54.1726 297.166 52.8191 298.607 52.5908C300.049 52.3625 301.402 53.3459 301.63 54.7872C301.859 56.2285 300.875 57.582 299.434 57.8103C297.993 58.0386 296.639 57.0552 296.411 55.6139Z" fill="#F6AAAA"/>
<path d="M271.639 55.6139C271.41 54.1726 272.394 52.8191 273.835 52.5908C275.276 52.3625 276.63 53.3459 276.858 54.7872C277.086 56.2285 276.103 57.582 274.662 57.8103C273.22 58.0386 271.867 57.0552 271.639 55.6139Z" fill="#E7E7E7"/>
<path d="M259.26 55.6139C259.032 54.1726 260.015 52.8191 261.456 52.5908C262.898 52.3625 264.251 53.3459 264.479 54.7872C264.708 56.2285 263.724 57.582 262.283 57.8103C260.842 58.0386 259.488 57.0552 259.26 55.6139Z" fill="#E7E7E7"/>
<path d="M234.625 55.6139C234.397 54.1726 235.38 52.8191 236.822 52.5908C238.263 52.3625 239.616 53.3459 239.845 54.7872C240.073 56.2285 239.09 57.582 237.648 57.8103C236.207 58.0386 234.853 57.0552 234.625 55.6139Z" fill="#E7E7E7"/>
<path d="M222.241 55.6139C222.012 54.1726 222.996 52.8191 224.437 52.5908C225.878 52.3625 227.232 53.3459 227.46 54.7872C227.688 56.2285 226.705 57.582 225.264 57.8103C223.822 58.0386 222.469 57.0552 222.241 55.6139Z" fill="#E7E7E7"/>
<path d="M197.476 55.6139C197.247 54.1726 198.231 52.8191 199.672 52.5908C201.114 52.3625 202.467 53.3459 202.695 54.7872C202.924 56.2285 201.94 57.582 200.499 57.8103C199.058 58.0386 197.704 57.0552 197.476 55.6139Z" fill="#E7E7E7"/>
<path d="M185.091 55.6139C184.863 54.1726 185.846 52.8191 187.288 52.5908C188.729 52.3625 190.082 53.3459 190.311 54.7872C190.539 56.2285 189.556 57.582 188.114 57.8103C186.673 58.0386 185.32 57.0552 185.091 55.6139Z" fill="#E7E7E7"/>
<path d="M172.705 55.6359C172.477 54.1945 173.46 52.841 174.901 52.6128C176.343 52.3845 177.696 53.3678 177.925 54.8092C178.153 56.2505 177.169 57.604 175.728 57.8323C174.287 58.0606 172.933 57.0772 172.705 55.6359Z" fill="#E7E7E7"/>
<path d="M160.328 55.6139C160.1 54.1726 161.083 52.8191 162.524 52.5908C163.966 52.3625 165.319 53.3459 165.548 54.7872C165.776 56.2285 164.793 57.582 163.351 57.8103C161.91 58.0386 160.556 57.0552 160.328 55.6139Z" fill="#E7E7E7"/>
<path d="M147.965 55.6067C147.738 54.1766 148.714 52.8336 150.144 52.6071C151.574 52.3805 152.917 53.3563 153.144 54.7864C153.37 56.2166 152.395 57.5596 150.964 57.7861C149.534 58.0126 148.191 57.0369 147.965 55.6067Z" fill="#F6AAAA"/>
<path d="M135.593 55.6046C135.367 54.18 136.339 52.8423 137.764 52.6167C139.188 52.391 140.526 53.363 140.752 54.7875C140.977 56.2121 140.006 57.5499 138.581 57.7755C137.156 58.0011 135.819 57.0292 135.593 55.6046Z" fill="#E7E7E7"/>
<path d="M123.155 55.615C122.924 54.1625 123.915 52.7985 125.368 52.5684C126.82 52.3384 128.184 53.3294 128.415 54.7819C128.645 56.2344 127.654 57.5984 126.201 57.8284C124.749 58.0585 123.385 57.0675 123.155 55.615Z" fill="#E7E7E7"/>
<path d="M98.326 55.6272C98.0906 54.1412 99.1045 52.7457 100.591 52.5103C102.077 52.275 103.472 53.2888 103.707 54.7749C103.943 56.2609 102.929 57.6564 101.443 57.8917C99.9568 58.1271 98.5613 57.1132 98.326 55.6272Z" fill="#E7E7E7"/>
<path d="M86.0164 55.6128C85.7873 54.1659 86.7744 52.8072 88.2214 52.578C89.6683 52.3488 91.027 53.336 91.2562 54.7829C91.4854 56.2299 90.4982 57.5886 89.0513 57.8178C87.6043 58.047 86.2456 57.0598 86.0164 55.6128Z" fill="#E7E7E7"/>
<path d="M73.6191 55.615C73.389 54.1625 74.38 52.7985 75.8325 52.5684C77.2851 52.3384 78.649 53.3294 78.8791 54.7819C79.1092 56.2344 78.1182 57.5984 76.6657 57.8284C75.2131 58.0585 73.8492 57.0675 73.6191 55.615Z" fill="#A566FF"/>
<path d="M61.2686 55.6088C61.0412 54.1731 62.0208 52.8249 63.4565 52.5975C64.8922 52.3701 66.2405 53.3496 66.4679 54.7854C66.6953 56.2211 65.7157 57.5694 64.28 57.7968C62.8442 58.0242 61.496 57.0446 61.2686 55.6088Z" fill="#A566FF"/>
<path d="M48.9759 55.5964C48.7564 54.2109 49.7017 52.9099 51.0872 52.6904C52.4726 52.471 53.7736 53.4163 53.9931 54.8017C54.2125 56.1872 53.2672 57.4882 51.8818 57.7076C50.4963 57.9271 49.1953 56.9818 48.9759 55.5964Z" fill="#E7E7E7"/>
<path d="M296.411 43.2262C296.183 41.7849 297.166 40.4314 298.607 40.2031C300.049 39.9748 301.402 40.9582 301.63 42.3995C301.859 43.8408 300.875 45.1943 299.434 45.4226C297.993 45.6509 296.639 44.6675 296.411 43.2262Z" fill="#E7E7E7"/>
<path d="M284.025 43.2262C283.797 41.7849 284.78 40.4314 286.221 40.2031C287.663 39.9748 289.016 40.9582 289.244 42.3995C289.473 43.8408 288.489 45.1943 287.048 45.4226C285.607 45.6509 284.253 44.6675 284.025 43.2262Z" fill="#E7E7E7"/>
<path d="M271.639 43.2262C271.41 41.7849 272.394 40.4314 273.835 40.2031C275.276 39.9748 276.63 40.9582 276.858 42.3995C277.086 43.8408 276.103 45.1943 274.662 45.4226C273.22 45.6509 271.867 44.6675 271.639 43.2262Z" fill="#E7E7E7"/>
<path d="M259.26 43.2262C259.032 41.7849 260.015 40.4314 261.456 40.2031C262.898 39.9748 264.251 40.9582 264.479 42.3995C264.708 43.8408 263.724 45.1943 262.283 45.4226C260.842 45.6509 259.488 44.6675 259.26 43.2262Z" fill="#E7E7E7"/>
<path d="M247.01 43.2262C246.781 41.7849 247.765 40.4314 249.206 40.2031C250.647 39.9748 252.001 40.9582 252.229 42.3995C252.458 43.8408 251.474 45.1943 250.033 45.4226C248.591 45.6509 247.238 44.6675 247.01 43.2262Z" fill="#E7E7E7"/>
<path d="M234.625 43.2262C234.397 41.7849 235.38 40.4314 236.822 40.2031C238.263 39.9748 239.616 40.9582 239.845 42.3995C240.073 43.8408 239.09 45.1943 237.648 45.4226C236.207 45.6509 234.853 44.6675 234.625 43.2262Z" fill="#E7E7E7"/>
<path d="M222.241 43.2262C222.012 41.7849 222.996 40.4314 224.437 40.2031C225.878 39.9748 227.232 40.9582 227.46 42.3995C227.688 43.8408 226.705 45.1943 225.264 45.4226C223.822 45.6509 222.469 44.6675 222.241 43.2262Z" fill="#E7E7E7"/>
<path d="M209.863 43.2262C209.635 41.7849 210.619 40.4314 212.06 40.2031C213.501 39.9748 214.855 40.9582 215.083 42.3995C215.311 43.8408 214.328 45.1943 212.887 45.4226C211.445 45.6509 210.092 44.6675 209.863 43.2262Z" fill="#A566FF"/>
<path d="M197.476 43.2262C197.247 41.7849 198.231 40.4314 199.672 40.2031C201.114 39.9748 202.467 40.9582 202.695 42.3995C202.924 43.8408 201.94 45.1943 200.499 45.4226C199.058 45.6509 197.704 44.6675 197.476 43.2262Z" fill="#E7E7E7"/>
<path d="M185.091 43.2262C184.863 41.7849 185.846 40.4314 187.288 40.2031C188.729 39.9748 190.082 40.9582 190.311 42.3995C190.539 43.8408 189.556 45.1943 188.114 45.4226C186.673 45.6509 185.32 44.6675 185.091 43.2262Z" fill="#E7E7E7"/>
<path d="M172.689 43.2482C172.461 41.8068 173.444 40.4534 174.886 40.2251C176.327 39.9968 177.681 40.9802 177.909 42.4215C178.137 43.8628 177.154 45.2163 175.712 45.4446C174.271 45.6729 172.918 44.6895 172.689 43.2482Z" fill="#E7E7E7"/>
<path d="M284.025 30.8446C283.797 29.4033 284.78 28.0498 286.221 27.8215C287.663 27.5932 289.016 28.5766 289.244 30.0179C289.473 31.4593 288.489 32.8127 287.048 33.041C285.607 33.2693 284.253 32.2859 284.025 30.8446Z" fill="#E7E7E7"/>
<path d="M271.639 30.8446C271.41 29.4033 272.394 28.0498 273.835 27.8215C275.276 27.5932 276.63 28.5766 276.858 30.0179C277.086 31.4593 276.103 32.8127 274.662 33.041C273.22 33.2693 271.867 32.286 271.639 30.8446Z" fill="#E7E7E7"/>
<path d="M247.106 30.83C246.886 29.4445 247.832 28.1435 249.217 27.9241C250.602 27.7047 251.904 28.6499 252.123 30.0354C252.342 31.4208 251.397 32.7218 250.012 32.9413C248.626 33.1607 247.325 32.2155 247.106 30.83Z" fill="#E7E7E7"/>
<path d="M222.224 30.8457C221.994 29.3932 222.985 28.0292 224.437 27.7991C225.89 27.5691 227.254 28.5601 227.484 30.0126C227.714 31.4651 226.723 32.8291 225.27 33.0591C223.818 33.2892 222.454 32.2982 222.224 30.8457Z" fill="#E7E7E7"/>
<path d="M209.903 30.8364C209.678 29.4174 210.646 28.0849 212.065 27.8601C213.484 27.6354 214.817 28.6035 215.042 30.0225C215.266 31.4415 214.298 32.774 212.879 32.9987C211.46 33.2235 210.128 32.2554 209.903 30.8364Z" fill="#E7E7E7"/>
<path d="M296.411 18.4601C296.183 17.0188 297.166 15.6653 298.607 15.437C300.049 15.2087 301.402 16.1921 301.63 17.6334C301.859 19.0747 300.875 20.4282 299.434 20.6565C297.993 20.8848 296.639 19.9014 296.411 18.4601Z" fill="#E7E7E7"/>
<path d="M284.025 18.4601C283.797 17.0188 284.78 15.6653 286.221 15.437C287.663 15.2087 289.016 16.1921 289.244 17.6334C289.473 19.0747 288.489 20.4282 287.048 20.6565C285.607 20.8848 284.253 19.9014 284.025 18.4601Z" fill="#E7E7E7"/>
<path d="M271.639 18.4601C271.41 17.0188 272.394 15.6653 273.835 15.437C275.276 15.2087 276.63 16.1921 276.858 17.6334C277.086 19.0747 276.103 20.4282 274.662 20.6565C273.22 20.8848 271.867 19.9014 271.639 18.4601Z" fill="#E7E7E7"/>
<path d="M259.26 18.4601C259.032 17.0188 260.015 15.6653 261.456 15.437C262.898 15.2087 264.251 16.1921 264.479 17.6334C264.708 19.0747 263.724 20.4282 262.283 20.6565C260.842 20.8848 259.488 19.9014 259.26 18.4601Z" fill="#E7E7E7"/>
<path d="M234.717 18.4415C234.497 17.0505 235.446 15.7442 236.837 15.5239C238.228 15.3035 239.534 16.2526 239.755 17.6436C239.975 19.0347 239.026 20.341 237.635 20.5613C236.244 20.7816 234.938 19.8325 234.717 18.4415Z" fill="#E7E7E7"/>
<path d="M222.451 18.429C222.241 17.105 223.145 15.8617 224.469 15.652C225.793 15.4423 227.036 16.3456 227.246 17.6696C227.455 18.9936 226.552 20.2369 225.228 20.4466C223.904 20.6563 222.661 19.753 222.451 18.429Z" fill="#A566FF"/>
</g>
</g>
</svg>
